# xmcd
#
# Track frame offsets:
#	150
#	13712
#	28465
#	44894
#	64691
#	83641
#	99418
#	115930
#	128040
#	139787
#	157633
#	174880
#	194670
#	201917
#	222295
#	241590
#	247423
#	253571
#
# Disc length: 3526 seconds
#
# Revision: 0
# Processed by: cddbd v1.5.1PL0 Copyright (c) Steve Scherf et al.
# Submitted via: EasyCDDAExtractor 8.2.3.1
#
DISCID=fe0dc412
DTITLE=50 Cent - Guess Who's Back?
DYEAR=2001
DGENRE=Hip-Hop
TTITLE0=Killa Tape Intro
TTITLE1=Rotten Apple
TTITLE2=Skit-Drop
TTITLE3=That's What's Up (Featuring G-Unit)
TTITLE4=U Not Like Me
TTITLE5=50 Bars
TTITLE6=Life's On The Line
TTITLE7=Get Out The Club
TTITLE8=Be A Gentleman
TTITLE9=Fuck You
TTITLE10=Too Hot (Featuring Nature and Nas)
TTITLE11=Who U Rep With (Featuring Nas and Bravehearts)
TTITLE12=Corner Bodega
TTITLE13=Ghetto Qua'ran
TTITLE14=As The World Turns (Featuring U.G.K.)
TTITLE15=Whoo Kid Freestyle
TTITLE16=Stretch Armstrong Freestyle
TTITLE17=Doo Wop Freestyle
EXTD=
EXTT0=
EXTT1=
EXTT2=
EXTT3=
EXTT4=
EXTT5=
EXTT6=
EXTT7=
EXTT8=
EXTT9=
EXTT10=
EXTT11=
EXTT12=
EXTT13=
EXTT14=
EXTT15=
EXTT16=
EXTT17=
PLAYORDER=
